<svg id="Layer_1" data-name="Layer 1" xmlns="http://www.w3.org/2000/svg" viewBox="0 0 153 123"><defs><style>.cls-1{fill:#6570e0;}</style></defs><title>car</title><path d="M2.5,91.5h149s-2,15-12,15H15.5S4.5,104.5,2.5,91.5Z"/><path class="cls-1" d="M134.5,48.5V44.66C138.78,48.07,151,47.6,151,41c0-8-11-7-11-7-6.8,0-7.1,5.77-7,7.5H130.5c0-23-27-29-27-29H92.61a9.43,9.43,0,0,0,.22-2A9.53,9.53,0,0,0,83.33,1h-13a9.47,9.47,0,0,0-9.28,11.5H51.5c-21,0-29,29-29,29H20c.07-1.73-.23-7.5-7-7.5,0,0-11-1-11,7,0,6.58,12.18,7.07,16.5,3.69V49.5c-19,11-16,36-16,36h149S154.5,61.5,134.5,48.5ZM69.33,7h3V4h3V7h3V4h3V7h3v3h-3V7h-3v3h-3V7h-3v3h-3ZM47,22.5h56c14,0,18.5,23,18.5,23h-89C32.5,29.5,47,22.5,47,22.5ZM8.5,78.5s-1-18,12-18,15,18,15,18Zm138,0h-27s2-18,15-18S146.48,78.5,146.48,78.5Z"/><path d="M35,112H10s0,10,13,10S35,112,35,112Z"/><path d="M144,112H119s0,10,13,10S144,112,144,112Z"/></svg>